<?xml version="1.0" encoding="UTF-8" standalone="no"?>
<!-- Created with Inkscape (http://www.inkscape.org/) -->

<svg
   width="512"
   height="512"
   viewBox="0 0 135.46667 135.46667"
   version="1.1"
   id="svg5"
   inkscape:version="1.2.1 (9c6d41e410, 2022-07-14)"
   sodipodi:docname="icon.svg"
   inkscape:export-filename="icon.png"
   inkscape:export-xdpi="96"
   inkscape:export-ydpi="96"
   xmlns:inkscape="http://www.inkscape.org/namespaces/inkscape"
   xmlns:sodipodi="http://sodipodi.sourceforge.net/DTD/sodipodi-0.dtd"
   xmlns="http://www.w3.org/2000/svg"
   xmlns:svg="http://www.w3.org/2000/svg">
  <sodipodi:namedview
     id="namedview7"
     pagecolor="#2b2d35"
     bordercolor="#eeeeee"
     borderopacity="1"
     inkscape:showpageshadow="0"
     inkscape:pageopacity="1"
     inkscape:pagecheckerboard="false"
     inkscape:deskcolor="#505050"
     inkscape:document-units="mm"
     showgrid="false"
     inkscape:zoom="1.829812"
     inkscape:cx="253.57796"
     inkscape:cy="240.46186"
     inkscape:window-width="2560"
     inkscape:window-height="1369"
     inkscape:window-x="1432"
     inkscape:window-y="626"
     inkscape:window-maximized="1"
     inkscape:current-layer="layer1" />
  <defs
     id="defs2" />
  <g
     inkscape:label="Layer 1"
     inkscape:groupmode="layer"
     id="layer1">
    <g
       aria-label="{   }"
       id="text5977"
       style="font-size:60.439px;opacity:1;fill:#21a1ff;stroke:#21a1ff;stroke-width:1.33846;stroke-linecap:round;stroke-linejoin:round">
      <path
         d="M 30.342605,98.718022 H 25.91592 q -5.28251,0 -8.587768,-2.951123 -3.275746,-2.921612 -3.275746,-8.469723 v -4.397173 q 0,-4.987398 -2.449432,-7.790965 Q 9.1535415,72.27596 4.1071212,72.27596 H 2.6020484 v -4.603752 h 1.5050728 q 5.0464203,0 7.4958528,-2.803567 2.449432,-2.833078 2.449432,-7.820476 v -4.397173 q 0,-5.548111 3.275746,-8.469723 3.305258,-2.951123 8.587768,-2.951123 h 4.426685 v 4.07255 h -3.364281 q -4.013527,0 -5.843223,1.859207 -1.800185,1.859208 -1.800185,5.99078 v 5.164465 q 0,4.102061 -2.272365,6.905628 -2.272365,2.774056 -6.315403,4.397173 v 0.70827 q 4.043038,1.623118 6.315403,4.426684 2.272365,2.774056 2.272365,6.876117 v 5.164465 q 0,4.131573 1.800185,5.99078 1.829696,1.859207 5.843223,1.859207 h 3.364281 z"
         id="path7473" />
      <path
         d="m 132.86462,72.27596 h -1.50507 q -5.04642,0 -7.49586,2.833078 -2.44943,2.803567 -2.44943,7.790965 v 4.397173 q 0,5.548111 -3.30526,8.469723 -3.27574,2.951123 -8.55825,2.951123 h -4.42669 v -4.07255 h 3.36428 q 4.01353,0 5.81371,-1.859207 1.8297,-1.859207 1.8297,-5.99078 V 81.63102 q 0,-4.102061 2.27237,-6.876117 2.27236,-2.803566 6.3154,-4.426684 v -0.70827 q -4.04304,-1.623117 -6.3154,-4.397173 -2.27237,-2.803567 -2.27237,-6.905628 v -5.164465 q 0,-4.131572 -1.8297,-5.99078 -1.80018,-1.859207 -5.81371,-1.859207 h -3.36428 v -4.07255 h 4.42669 q 5.28251,0 8.55825,2.951123 3.30526,2.921612 3.30526,8.469723 v 4.397173 q 0,4.987398 2.44943,7.820476 2.44944,2.803567 7.49586,2.803567 h 1.50507 z"
         id="path7475" />
    </g>
    <path
       style="opacity:1;fill:none;stroke:#21a1ff;stroke-width:1.03319;stroke-linecap:round;stroke-linejoin:round;stroke-dasharray:none;stroke-opacity:1"
       d="m 35.828944,56.987046 -8.814323,17.479247 67.676055,0.298791 3.585487,-17.180456 -12.101019,-0.149396 -2.689111,8.067343 -37.498211,-0.448184 3.137299,-8.067345 z"
       id="path740" />
    <path
       style="opacity:1;fill:none;stroke:#21a1ff;stroke-width:1.03319;stroke-linecap:round;stroke-linejoin:round;stroke-dasharray:none;stroke-opacity:1"
       d="m 68.126781,53.608334 12.825088,0.04909 0.10563,-42.255362 H 47.464496 l 0.316914,42.149729 10.31893,0.133245"
       id="path1768"
       sodipodi:nodetypes="cccccc" />
    <path
       style="opacity:1;fill:#21a1ff;stroke:#21a1ff;stroke-width:1.03319;stroke-linecap:round;stroke-linejoin:round;stroke-dasharray:none;stroke-opacity:1;fill-opacity:1"
       d="M 96.427895,84.186938 100.70625,63.481814 98.276163,57.584628 94.690676,74.765084"
       id="path2284"
       sodipodi:nodetypes="ccc" />
    <path
       style="opacity:1;fill:none;stroke:#21a1ff;stroke-width:1.03319;stroke-linecap:round;stroke-linejoin:round;stroke-dasharray:none;stroke-opacity:1"
       d="m 94.690676,74.765084 1.737219,9.421854 -67.084652,0.01017"
       id="path2286"
       sodipodi:nodetypes="ccc" />
    <path
       style="opacity:1;fill:none;stroke:#21a1ff;stroke-width:1.03319;stroke-linecap:round;stroke-linejoin:round;stroke-dasharray:none;stroke-opacity:1"
       d="m 27.014621,74.466293 2.328622,9.730873"
       id="path2288"
       sodipodi:nodetypes="cc" />
    <path
       style="opacity:1;fill:none;stroke:#21a1ff;stroke-width:1.03319;stroke-linecap:round;stroke-linejoin:round;stroke-dasharray:none;stroke-opacity:1"
       d="m 44.643263,56.987046 c 0,-1.493951 0,-1.493951 0,0"
       id="path2339" />
    <path
       id="path2353"
       style="opacity:1;fill:#21a1ff;fill-opacity:1;stroke:#21a1ff;stroke-width:1.03319;stroke-linecap:round;stroke-linejoin:round;stroke-dasharray:none;stroke-opacity:1"
       d="m 80.954374,52.654511 2.942495,-0.02526 3.799469,0.750116 -0.194887,-39.970159 -6.443952,-2.007146"
       sodipodi:nodetypes="cccc" />
    <path
       style="opacity:1;fill:#21a1ff;stroke:#21a1ff;stroke-width:1.03319;stroke-linecap:round;stroke-linejoin:round;stroke-dasharray:none;stroke-opacity:1;fill-opacity:1"
       d="m 83.882059,64.314507 0.01481,-11.685256 4.6686,0.921706 -0.05437,3.913116 -2.335955,-0.02884"
       id="path2349"
       sodipodi:nodetypes="cc" />
    <path
       style="opacity:1;fill:none;stroke:#21a1ff;stroke-width:1.03319;stroke-linecap:round;stroke-linejoin:round;stroke-dasharray:none;stroke-opacity:1"
       d="m 44.506644,84.228973 v 22.564587 l 4.648065,0.15846 0.05281,-4.75372 4.54245,0.15845 -0.211278,9.45463 4.912187,0.21127 0.264096,-16.215486 4.595271,0.158459 -0.342607,7.605967 4.885059,0.15846 -0.264095,12.78225 5.070643,0.15845 -0.07907,-6.49898 5.308176,0.0551 -0.105631,-11.461777 5.387559,0.105633 -0.105632,3.908624 5.314088,-1.79586 V 84.214597"
       id="path4550" />
    <path
       style="opacity:1;fill:none;stroke:#21a1ff;stroke-width:1.03319;stroke-linecap:round;stroke-linejoin:round;stroke-dasharray:none;stroke-opacity:1"
       d="M 83.170268,98.870679 83.275914,91.31753"
       id="path4552" />
    <path
       style="opacity:1;fill:none;stroke:#21a1ff;stroke-width:1.03319;stroke-linecap:round;stroke-linejoin:round;stroke-dasharray:none;stroke-opacity:1"
       d="m 62.967646,103.57159 -4.375679,-0.21113 -0.07314,4.49017 4.395275,0.0785 0.05354,-4.3576"
       id="path4554" />
    <path
       style="opacity:1;fill:none;stroke:#21a1ff;stroke-width:1.03319;stroke-linecap:round;stroke-linejoin:round;stroke-dasharray:none;stroke-opacity:1"
       d="m 53.5387,111.81138 -0.0064,4.4109 -4.78065,-0.2241 v -4.33247 l 4.787068,0.14567"
       id="path4556" />
    <path
       style="opacity:1;fill:none;stroke:#21a1ff;stroke-width:1.03319;stroke-linecap:round;stroke-linejoin:round;stroke-dasharray:none;stroke-opacity:1"
       d="m 58.379949,117.79093 4.414838,0.29878 v 4.36982 l -4.705949,-0.37349 z"
       id="path4560" />
    <path
       style="opacity:1;fill:none;stroke:#21a1ff;stroke-width:1.03319;stroke-linecap:round;stroke-linejoin:round;stroke-dasharray:none;stroke-opacity:1"
       d="m 77.888349,110.22681 0.07005,9.89961 h 5.454177 l -0.378983,-9.95465 z"
       id="path4562" />
    <path
       style="opacity:1;fill:none;stroke:#21a1ff;stroke-width:1.03319;stroke-linecap:round;stroke-linejoin:round;stroke-dasharray:none;stroke-opacity:1"
       d="m 83.033599,110.17177 -2e-6,-3.80076 4.62631,-1.42613 -0.211275,5.08879 z"
       id="path4564" />
    <path
       style="opacity:1;fill:none;stroke:#21a1ff;stroke-width:1.03319;stroke-linecap:round;stroke-linejoin:round;stroke-dasharray:none;stroke-opacity:1"
       d="m 67.852706,103.73004 v -2.16558"
       id="path4566" />
    <path
       style="opacity:1;fill:none;stroke:#21a1ff;stroke-width:1.03319;stroke-linecap:round;stroke-linejoin:round;stroke-dasharray:none;stroke-opacity:1"
       d="m 53.749978,102.35675 -0.07459,-4.331182"
       id="path4568" />
    <path
       style="opacity:1;fill:none;stroke:#21a1ff;stroke-width:1.03319;stroke-linecap:round;stroke-linejoin:round;stroke-dasharray:none;stroke-opacity:1"
       d="m 67.989389,89.480516 -0.273366,4.183067 5.162945,-0.0747 -0.07471,-4.631254 z"
       id="path4570" />
    <path
       style="opacity:1;fill:none;stroke:#21a1ff;stroke-width:1.03319;stroke-linecap:round;stroke-linejoin:round;stroke-dasharray:none;stroke-opacity:1"
       d="m 58.387627,39.731894 8.055054,-0.124357 -0.09975,16.955963 -8.104693,-0.136682 0.149394,-16.69492"
       id="path4599"
       sodipodi:nodetypes="ccccc" />
    <path
       style="opacity:1;fill:none;stroke:#21a1ff;stroke-width:1.03319;stroke-linecap:round;stroke-linejoin:round;stroke-dasharray:none;stroke-opacity:1"
       d="m 66.342926,56.563497 0.09975,-16.955964"
       id="path4601"
       sodipodi:nodetypes="cc" />
    <path
       style="opacity:1;fill:none;stroke:#21a1ff;stroke-width:1.03319;stroke-linecap:round;stroke-linejoin:round;stroke-dasharray:none;stroke-opacity:1"
       d="m 50.950563,32.54356 0.10563,-4.292156 25.511676,-1e-6 -0.05281,4.292157 z"
       id="path4751"
       sodipodi:nodetypes="ccccc" />
    <path
       style="opacity:1;fill:#21a1ff;fill-opacity:1;stroke:#21a1ff;stroke-width:1.03319;stroke-linecap:round;stroke-linejoin:round;stroke-dasharray:none;stroke-opacity:1"
       d="m 50.950563,32.54356 -0.140089,3.52815 7.93517,-0.07016 -0.02188,-3.457987"
       id="path4915"
       sodipodi:nodetypes="cccc" />
    <path
       style="opacity:1;fill:#21a1ff;fill-opacity:1;stroke:#21a1ff;stroke-width:1.03319;stroke-linecap:round;stroke-linejoin:round;stroke-dasharray:none;stroke-opacity:1"
       d="m 76.515055,32.54356 -0.04154,3.641107 H 67.62185 L 67.57544,32.54356"
       id="path4917"
       sodipodi:nodetypes="cccc" />
    <path
       style="opacity:1;fill:#21a1ff;fill-opacity:1;stroke:#21a1ff;stroke-width:1;stroke-linecap:round;stroke-linejoin:round;stroke-dasharray:none;stroke-opacity:1"
       d="m 66.442679,39.607538 1.879735,0.946034 -0.224094,14.953944 -1.755394,1.055982 0.09975,-16.955965"
       id="path6384" />
    <path
       style="opacity:1;fill:#21a1ff;fill-opacity:1;stroke:#21a1ff;stroke-width:1;stroke-linecap:round;stroke-linejoin:round;stroke-dasharray:none;stroke-opacity:1"
       d="m 49.125121,56.987045 -0.834868,8.141008 -2.302318,-0.07366 z"
       id="path6417"
       sodipodi:nodetypes="cccc" />
    <path
       style="opacity:1;fill:none;fill-opacity:1;stroke:#21a1ff;stroke-width:1;stroke-linecap:round;stroke-linejoin:round;stroke-dasharray:none;stroke-opacity:1"
       d="m 45.728964,56.987045 -10e-7,-3.92202 2.048605,-0.02424"
       id="path6419"
       sodipodi:nodetypes="ccc" />
  </g>
</svg>
